<mxfile host="65bd71144e">
    <diagram id="hJ_ksTVgO-2A7YlF5C1O" name="第 1 页">
        <mxGraphModel dx="1097" dy="771" grid="1" gridSize="10" guides="1" tooltips="1" connect="1" arrows="1" fold="1" page="1" pageScale="1" pageWidth="827" pageHeight="1169" math="0" shadow="0">
            <root>
                <mxCell id="0"/>
                <mxCell id="1" parent="0"/>
                <mxCell id="gB6RMDtw2RlHLkJbjspv-42" style="edgeStyle=none;html=1;exitX=0.5;exitY=1;exitDx=0;exitDy=0;entryX=0.5;entryY=0;entryDx=0;entryDy=0;" edge="1" parent="1" source="3" target="6">
                    <mxGeometry relative="1" as="geometry">
                        <Array as="points">
                            <mxPoint x="360" y="170"/>
                            <mxPoint x="160" y="170"/>
                        </Array>
                    </mxGeometry>
                </mxCell>
                <mxCell id="3" value="开始" style="rounded=1;whiteSpace=wrap;html=1;" vertex="1" parent="1">
                    <mxGeometry x="300" y="90" width="120" height="60" as="geometry"/>
                </mxCell>
                <mxCell id="gB6RMDtw2RlHLkJbjspv-46" value="" style="edgeStyle=none;html=1;" edge="1" parent="1" source="6" target="gB6RMDtw2RlHLkJbjspv-45">
                    <mxGeometry relative="1" as="geometry"/>
                </mxCell>
                <mxCell id="6" value="输入记录ID" style="whiteSpace=wrap;html=1;" vertex="1" parent="1">
                    <mxGeometry x="100" y="194" width="120" height="60" as="geometry"/>
                </mxCell>
                <mxCell id="gB6RMDtw2RlHLkJbjspv-48" value="" style="edgeStyle=none;html=1;" edge="1" parent="1" source="gB6RMDtw2RlHLkJbjspv-45" target="gB6RMDtw2RlHLkJbjspv-47">
                    <mxGeometry relative="1" as="geometry"/>
                </mxCell>
                <mxCell id="gB6RMDtw2RlHLkJbjspv-45" value="从本地查找该记录" style="whiteSpace=wrap;html=1;" vertex="1" parent="1">
                    <mxGeometry x="300" y="194" width="120" height="60" as="geometry"/>
                </mxCell>
                <mxCell id="gB6RMDtw2RlHLkJbjspv-50" value="" style="edgeStyle=none;html=1;" edge="1" parent="1" source="gB6RMDtw2RlHLkJbjspv-47" target="gB6RMDtw2RlHLkJbjspv-49">
                    <mxGeometry relative="1" as="geometry"/>
                </mxCell>
                <mxCell id="gB6RMDtw2RlHLkJbjspv-47" value="该记录&lt;br&gt;是否存在" style="rhombus;whiteSpace=wrap;html=1;" vertex="1" parent="1">
                    <mxGeometry x="320" y="280" width="80" height="80" as="geometry"/>
                </mxCell>
                <mxCell id="gB6RMDtw2RlHLkJbjspv-54" value="" style="edgeStyle=none;html=1;" edge="1" parent="1" source="gB6RMDtw2RlHLkJbjspv-49" target="gB6RMDtw2RlHLkJbjspv-53">
                    <mxGeometry relative="1" as="geometry"/>
                </mxCell>
                <mxCell id="gB6RMDtw2RlHLkJbjspv-49" value="展示查找到的&lt;br&gt;记录信息" style="whiteSpace=wrap;html=1;" vertex="1" parent="1">
                    <mxGeometry x="300" y="380" width="120" height="60" as="geometry"/>
                </mxCell>
                <mxCell id="gB6RMDtw2RlHLkJbjspv-56" value="" style="edgeStyle=none;html=1;" edge="1" parent="1" source="gB6RMDtw2RlHLkJbjspv-53" target="gB6RMDtw2RlHLkJbjspv-55">
                    <mxGeometry relative="1" as="geometry"/>
                </mxCell>
                <mxCell id="gB6RMDtw2RlHLkJbjspv-53" value="弹出确认删除选项框" style="whiteSpace=wrap;html=1;" vertex="1" parent="1">
                    <mxGeometry x="300" y="470" width="120" height="60" as="geometry"/>
                </mxCell>
                <mxCell id="gB6RMDtw2RlHLkJbjspv-58" value="" style="edgeStyle=none;html=1;" edge="1" parent="1" source="gB6RMDtw2RlHLkJbjspv-55" target="gB6RMDtw2RlHLkJbjspv-57">
                    <mxGeometry relative="1" as="geometry">
                        <Array as="points">
                            <mxPoint x="160" y="590"/>
                        </Array>
                    </mxGeometry>
                </mxCell>
                <mxCell id="gB6RMDtw2RlHLkJbjspv-55" value="用户进行选择" style="whiteSpace=wrap;html=1;" vertex="1" parent="1">
                    <mxGeometry x="100" y="470" width="120" height="60" as="geometry"/>
                </mxCell>
                <mxCell id="gB6RMDtw2RlHLkJbjspv-60" value="是" style="edgeStyle=none;html=1;" edge="1" parent="1" source="gB6RMDtw2RlHLkJbjspv-57" target="gB6RMDtw2RlHLkJbjspv-59">
                    <mxGeometry relative="1" as="geometry"/>
                </mxCell>
                <mxCell id="gB6RMDtw2RlHLkJbjspv-65" style="edgeStyle=none;html=1;exitX=1;exitY=0.5;exitDx=0;exitDy=0;entryX=1;entryY=0.5;entryDx=0;entryDy=0;" edge="1" parent="1" source="gB6RMDtw2RlHLkJbjspv-57" target="gB6RMDtw2RlHLkJbjspv-63">
                    <mxGeometry relative="1" as="geometry">
                        <Array as="points">
                            <mxPoint x="480" y="590"/>
                            <mxPoint x="480" y="880"/>
                        </Array>
                    </mxGeometry>
                </mxCell>
                <mxCell id="gB6RMDtw2RlHLkJbjspv-66" value="否" style="edgeLabel;html=1;align=center;verticalAlign=middle;resizable=0;points=[];" vertex="1" connectable="0" parent="gB6RMDtw2RlHLkJbjspv-65">
                    <mxGeometry x="-0.3905" relative="1" as="geometry">
                        <mxPoint as="offset"/>
                    </mxGeometry>
                </mxCell>
                <mxCell id="gB6RMDtw2RlHLkJbjspv-57" value="确认删除" style="rhombus;whiteSpace=wrap;html=1;" vertex="1" parent="1">
                    <mxGeometry x="320" y="550" width="80" height="80" as="geometry"/>
                </mxCell>
                <mxCell id="gB6RMDtw2RlHLkJbjspv-62" value="" style="edgeStyle=none;html=1;" edge="1" parent="1" source="gB6RMDtw2RlHLkJbjspv-59" target="gB6RMDtw2RlHLkJbjspv-61">
                    <mxGeometry relative="1" as="geometry"/>
                </mxCell>
                <mxCell id="gB6RMDtw2RlHLkJbjspv-59" value="从本地数据库&lt;br&gt;删除该记录" style="whiteSpace=wrap;html=1;" vertex="1" parent="1">
                    <mxGeometry x="300" y="670" width="120" height="60" as="geometry"/>
                </mxCell>
                <mxCell id="gB6RMDtw2RlHLkJbjspv-64" style="edgeStyle=none;html=1;exitX=0.5;exitY=1;exitDx=0;exitDy=0;entryX=0.5;entryY=0;entryDx=0;entryDy=0;" edge="1" parent="1" source="gB6RMDtw2RlHLkJbjspv-61" target="gB6RMDtw2RlHLkJbjspv-63">
                    <mxGeometry relative="1" as="geometry"/>
                </mxCell>
                <mxCell id="gB6RMDtw2RlHLkJbjspv-61" value="更新缓存" style="whiteSpace=wrap;html=1;" vertex="1" parent="1">
                    <mxGeometry x="300" y="760" width="120" height="60" as="geometry"/>
                </mxCell>
                <mxCell id="gB6RMDtw2RlHLkJbjspv-63" value="结束" style="rounded=1;whiteSpace=wrap;html=1;" vertex="1" parent="1">
                    <mxGeometry x="300" y="850" width="120" height="60" as="geometry"/>
                </mxCell>
            </root>
        </mxGraphModel>
    </diagram>
    <diagram name="收支变更功能" id="UyxbL8Q0cljZRLNVke4q">
        <mxGraphModel dx="1097" dy="771" grid="1" gridSize="10" guides="1" tooltips="1" connect="1" arrows="1" fold="1" page="1" pageScale="1" pageWidth="827" pageHeight="1169" math="0" shadow="0">
            <root>
                <mxCell id="MXOXvjO1fxlLt-gfCvsT-0"/>
                <mxCell id="MXOXvjO1fxlLt-gfCvsT-1" parent="MXOXvjO1fxlLt-gfCvsT-0"/>
                <mxCell id="MXOXvjO1fxlLt-gfCvsT-2" style="edgeStyle=none;html=1;exitX=0.5;exitY=1;exitDx=0;exitDy=0;entryX=0.5;entryY=0;entryDx=0;entryDy=0;" edge="1" parent="MXOXvjO1fxlLt-gfCvsT-1" source="MXOXvjO1fxlLt-gfCvsT-3" target="MXOXvjO1fxlLt-gfCvsT-5">
                    <mxGeometry relative="1" as="geometry">
                        <Array as="points">
                            <mxPoint x="360" y="170"/>
                            <mxPoint x="160" y="170"/>
                        </Array>
                    </mxGeometry>
                </mxCell>
                <mxCell id="MXOXvjO1fxlLt-gfCvsT-3" value="开始" style="rounded=1;whiteSpace=wrap;html=1;" vertex="1" parent="MXOXvjO1fxlLt-gfCvsT-1">
                    <mxGeometry x="300" y="90" width="120" height="60" as="geometry"/>
                </mxCell>
                <mxCell id="MXOXvjO1fxlLt-gfCvsT-4" value="" style="edgeStyle=none;html=1;" edge="1" parent="MXOXvjO1fxlLt-gfCvsT-1" source="MXOXvjO1fxlLt-gfCvsT-5" target="MXOXvjO1fxlLt-gfCvsT-7">
                    <mxGeometry relative="1" as="geometry"/>
                </mxCell>
                <mxCell id="MXOXvjO1fxlLt-gfCvsT-5" value="输入记录ID" style="whiteSpace=wrap;html=1;" vertex="1" parent="MXOXvjO1fxlLt-gfCvsT-1">
                    <mxGeometry x="100" y="194" width="120" height="60" as="geometry"/>
                </mxCell>
                <mxCell id="MXOXvjO1fxlLt-gfCvsT-6" value="" style="edgeStyle=none;html=1;" edge="1" parent="MXOXvjO1fxlLt-gfCvsT-1" source="MXOXvjO1fxlLt-gfCvsT-7" target="MXOXvjO1fxlLt-gfCvsT-9">
                    <mxGeometry relative="1" as="geometry"/>
                </mxCell>
                <mxCell id="MXOXvjO1fxlLt-gfCvsT-7" value="从本地查找该记录" style="whiteSpace=wrap;html=1;" vertex="1" parent="MXOXvjO1fxlLt-gfCvsT-1">
                    <mxGeometry x="300" y="194" width="120" height="60" as="geometry"/>
                </mxCell>
                <mxCell id="MXOXvjO1fxlLt-gfCvsT-8" value="" style="edgeStyle=none;html=1;" edge="1" parent="MXOXvjO1fxlLt-gfCvsT-1" source="MXOXvjO1fxlLt-gfCvsT-9" target="MXOXvjO1fxlLt-gfCvsT-11">
                    <mxGeometry relative="1" as="geometry"/>
                </mxCell>
                <mxCell id="MXOXvjO1fxlLt-gfCvsT-9" value="该记录&lt;br&gt;是否存在" style="rhombus;whiteSpace=wrap;html=1;" vertex="1" parent="MXOXvjO1fxlLt-gfCvsT-1">
                    <mxGeometry x="320" y="280" width="80" height="80" as="geometry"/>
                </mxCell>
                <mxCell id="MXOXvjO1fxlLt-gfCvsT-10" value="" style="edgeStyle=none;html=1;" edge="1" parent="MXOXvjO1fxlLt-gfCvsT-1" source="MXOXvjO1fxlLt-gfCvsT-11" target="MXOXvjO1fxlLt-gfCvsT-13">
                    <mxGeometry relative="1" as="geometry"/>
                </mxCell>
                <mxCell id="MXOXvjO1fxlLt-gfCvsT-11" value="展示查找到的&lt;br&gt;记录信息" style="whiteSpace=wrap;html=1;" vertex="1" parent="MXOXvjO1fxlLt-gfCvsT-1">
                    <mxGeometry x="300" y="380" width="120" height="60" as="geometry"/>
                </mxCell>
                <mxCell id="MXOXvjO1fxlLt-gfCvsT-12" value="" style="edgeStyle=none;html=1;" edge="1" parent="MXOXvjO1fxlLt-gfCvsT-1" source="MXOXvjO1fxlLt-gfCvsT-13" target="MXOXvjO1fxlLt-gfCvsT-15">
                    <mxGeometry relative="1" as="geometry"/>
                </mxCell>
                <mxCell id="MXOXvjO1fxlLt-gfCvsT-13" value="弹出确认删除选项框" style="whiteSpace=wrap;html=1;" vertex="1" parent="MXOXvjO1fxlLt-gfCvsT-1">
                    <mxGeometry x="300" y="470" width="120" height="60" as="geometry"/>
                </mxCell>
                <mxCell id="MXOXvjO1fxlLt-gfCvsT-14" value="" style="edgeStyle=none;html=1;" edge="1" parent="MXOXvjO1fxlLt-gfCvsT-1" source="MXOXvjO1fxlLt-gfCvsT-15" target="MXOXvjO1fxlLt-gfCvsT-19">
                    <mxGeometry relative="1" as="geometry">
                        <Array as="points">
                            <mxPoint x="160" y="590"/>
                        </Array>
                    </mxGeometry>
                </mxCell>
                <mxCell id="MXOXvjO1fxlLt-gfCvsT-15" value="用户进行选择" style="whiteSpace=wrap;html=1;" vertex="1" parent="MXOXvjO1fxlLt-gfCvsT-1">
                    <mxGeometry x="100" y="470" width="120" height="60" as="geometry"/>
                </mxCell>
                <mxCell id="MXOXvjO1fxlLt-gfCvsT-16" value="是" style="edgeStyle=none;html=1;" edge="1" parent="MXOXvjO1fxlLt-gfCvsT-1" source="MXOXvjO1fxlLt-gfCvsT-19" target="MXOXvjO1fxlLt-gfCvsT-21">
                    <mxGeometry relative="1" as="geometry"/>
                </mxCell>
                <mxCell id="MXOXvjO1fxlLt-gfCvsT-17" style="edgeStyle=none;html=1;exitX=1;exitY=0.5;exitDx=0;exitDy=0;entryX=1;entryY=0.5;entryDx=0;entryDy=0;" edge="1" parent="MXOXvjO1fxlLt-gfCvsT-1" source="MXOXvjO1fxlLt-gfCvsT-19" target="MXOXvjO1fxlLt-gfCvsT-24">
                    <mxGeometry relative="1" as="geometry">
                        <Array as="points">
                            <mxPoint x="480" y="590"/>
                            <mxPoint x="480" y="880"/>
                        </Array>
                    </mxGeometry>
                </mxCell>
                <mxCell id="MXOXvjO1fxlLt-gfCvsT-18" value="否" style="edgeLabel;html=1;align=center;verticalAlign=middle;resizable=0;points=[];" vertex="1" connectable="0" parent="MXOXvjO1fxlLt-gfCvsT-17">
                    <mxGeometry x="-0.3905" relative="1" as="geometry">
                        <mxPoint as="offset"/>
                    </mxGeometry>
                </mxCell>
                <mxCell id="MXOXvjO1fxlLt-gfCvsT-19" value="确认删除" style="rhombus;whiteSpace=wrap;html=1;" vertex="1" parent="MXOXvjO1fxlLt-gfCvsT-1">
                    <mxGeometry x="320" y="550" width="80" height="80" as="geometry"/>
                </mxCell>
                <mxCell id="MXOXvjO1fxlLt-gfCvsT-20" value="" style="edgeStyle=none;html=1;" edge="1" parent="MXOXvjO1fxlLt-gfCvsT-1" source="MXOXvjO1fxlLt-gfCvsT-21" target="MXOXvjO1fxlLt-gfCvsT-23">
                    <mxGeometry relative="1" as="geometry"/>
                </mxCell>
                <mxCell id="MXOXvjO1fxlLt-gfCvsT-21" value="从本地数据库&lt;br&gt;删除该记录" style="whiteSpace=wrap;html=1;" vertex="1" parent="MXOXvjO1fxlLt-gfCvsT-1">
                    <mxGeometry x="300" y="670" width="120" height="60" as="geometry"/>
                </mxCell>
                <mxCell id="MXOXvjO1fxlLt-gfCvsT-22" style="edgeStyle=none;html=1;exitX=0.5;exitY=1;exitDx=0;exitDy=0;entryX=0.5;entryY=0;entryDx=0;entryDy=0;" edge="1" parent="MXOXvjO1fxlLt-gfCvsT-1" source="MXOXvjO1fxlLt-gfCvsT-23" target="MXOXvjO1fxlLt-gfCvsT-24">
                    <mxGeometry relative="1" as="geometry"/>
                </mxCell>
                <mxCell id="MXOXvjO1fxlLt-gfCvsT-23" value="更新缓存" style="whiteSpace=wrap;html=1;" vertex="1" parent="MXOXvjO1fxlLt-gfCvsT-1">
                    <mxGeometry x="300" y="760" width="120" height="60" as="geometry"/>
                </mxCell>
                <mxCell id="MXOXvjO1fxlLt-gfCvsT-24" value="结束" style="rounded=1;whiteSpace=wrap;html=1;" vertex="1" parent="MXOXvjO1fxlLt-gfCvsT-1">
                    <mxGeometry x="300" y="850" width="120" height="60" as="geometry"/>
                </mxCell>
            </root>
        </mxGraphModel>
    </diagram>
    <diagram name="收支记录功能" id="6Bza0rpQTsFNVtz-Lfsb">
        <mxGraphModel dx="1097" dy="771" grid="1" gridSize="10" guides="1" tooltips="1" connect="1" arrows="1" fold="1" page="1" pageScale="1" pageWidth="827" pageHeight="1169" math="0" shadow="0">
            <root>
                <mxCell id="swyq_M6X0E8kCA_kpSzY-0"/>
                <mxCell id="swyq_M6X0E8kCA_kpSzY-1" parent="swyq_M6X0E8kCA_kpSzY-0"/>
                <mxCell id="swyq_M6X0E8kCA_kpSzY-2" style="edgeStyle=none;html=1;exitX=0.5;exitY=1;exitDx=0;exitDy=0;entryX=0.5;entryY=0;entryDx=0;entryDy=0;" edge="1" parent="swyq_M6X0E8kCA_kpSzY-1">
                    <mxGeometry relative="1" as="geometry">
                        <mxPoint x="360" y="151" as="sourcePoint"/>
                        <mxPoint x="160" y="201" as="targetPoint"/>
                        <Array as="points">
                            <mxPoint x="360" y="171"/>
                            <mxPoint x="160" y="171"/>
                        </Array>
                    </mxGeometry>
                </mxCell>
                <mxCell id="swyq_M6X0E8kCA_kpSzY-3" value="开始" style="rounded=1;whiteSpace=wrap;html=1;" vertex="1" parent="swyq_M6X0E8kCA_kpSzY-1">
                    <mxGeometry x="300" y="90" width="120" height="60" as="geometry"/>
                </mxCell>
                <mxCell id="swyq_M6X0E8kCA_kpSzY-4" value="" style="edgeStyle=none;html=1;" edge="1" parent="swyq_M6X0E8kCA_kpSzY-1" source="swyq_M6X0E8kCA_kpSzY-5" target="swyq_M6X0E8kCA_kpSzY-9">
                    <mxGeometry relative="1" as="geometry"/>
                </mxCell>
                <mxCell id="swyq_M6X0E8kCA_kpSzY-5" value="新建记录" style="whiteSpace=wrap;html=1;" vertex="1" parent="swyq_M6X0E8kCA_kpSzY-1">
                    <mxGeometry x="100" y="200" width="120" height="60" as="geometry"/>
                </mxCell>
                <mxCell id="swyq_M6X0E8kCA_kpSzY-6" value="是" style="edgeStyle=none;html=1;" edge="1" parent="swyq_M6X0E8kCA_kpSzY-1" source="swyq_M6X0E8kCA_kpSzY-9" target="swyq_M6X0E8kCA_kpSzY-13">
                    <mxGeometry relative="1" as="geometry"/>
                </mxCell>
                <mxCell id="swyq_M6X0E8kCA_kpSzY-7" style="edgeStyle=none;html=1;exitX=1;exitY=0.5;exitDx=0;exitDy=0;entryX=1.025;entryY=0.633;entryDx=0;entryDy=0;entryPerimeter=0;" edge="1" parent="swyq_M6X0E8kCA_kpSzY-1" source="swyq_M6X0E8kCA_kpSzY-9" target="swyq_M6X0E8kCA_kpSzY-15">
                    <mxGeometry relative="1" as="geometry">
                        <mxPoint x="400" y="206" as="sourcePoint"/>
                        <Array as="points">
                            <mxPoint x="440" y="230"/>
                            <mxPoint x="440" y="427"/>
                        </Array>
                    </mxGeometry>
                </mxCell>
                <mxCell id="swyq_M6X0E8kCA_kpSzY-8" value="否" style="edgeLabel;html=1;align=center;verticalAlign=middle;resizable=0;points=[];" vertex="1" connectable="0" parent="swyq_M6X0E8kCA_kpSzY-7">
                    <mxGeometry x="-0.261" y="3" relative="1" as="geometry">
                        <mxPoint as="offset"/>
                    </mxGeometry>
                </mxCell>
                <mxCell id="swyq_M6X0E8kCA_kpSzY-9" value="记录类型&lt;br&gt;为收入" style="rhombus;whiteSpace=wrap;html=1;" vertex="1" parent="swyq_M6X0E8kCA_kpSzY-1">
                    <mxGeometry x="320" y="190" width="80" height="80" as="geometry"/>
                </mxCell>
                <mxCell id="swyq_M6X0E8kCA_kpSzY-10" value="" style="edgeStyle=none;html=1;" edge="1" parent="swyq_M6X0E8kCA_kpSzY-1" source="swyq_M6X0E8kCA_kpSzY-11" target="swyq_M6X0E8kCA_kpSzY-19">
                    <mxGeometry relative="1" as="geometry">
                        <Array as="points">
                            <mxPoint x="160" y="479"/>
                            <mxPoint x="360" y="479"/>
                        </Array>
                    </mxGeometry>
                </mxCell>
                <mxCell id="swyq_M6X0E8kCA_kpSzY-11" value="输入金额" style="whiteSpace=wrap;html=1;" vertex="1" parent="swyq_M6X0E8kCA_kpSzY-1">
                    <mxGeometry x="100" y="389" width="120" height="60" as="geometry"/>
                </mxCell>
                <mxCell id="swyq_M6X0E8kCA_kpSzY-12" style="edgeStyle=none;html=1;exitX=0;exitY=0.5;exitDx=0;exitDy=0;entryX=0.5;entryY=0;entryDx=0;entryDy=0;" edge="1" parent="swyq_M6X0E8kCA_kpSzY-1" source="swyq_M6X0E8kCA_kpSzY-13" target="swyq_M6X0E8kCA_kpSzY-11">
                    <mxGeometry relative="1" as="geometry">
                        <Array as="points">
                            <mxPoint x="160" y="326"/>
                        </Array>
                    </mxGeometry>
                </mxCell>
                <mxCell id="swyq_M6X0E8kCA_kpSzY-13" value="该记录对应的数据&lt;br&gt;标识设为True" style="whiteSpace=wrap;html=1;" vertex="1" parent="swyq_M6X0E8kCA_kpSzY-1">
                    <mxGeometry x="300" y="296" width="120" height="60" as="geometry"/>
                </mxCell>
                <mxCell id="swyq_M6X0E8kCA_kpSzY-14" style="edgeStyle=none;html=1;exitX=0;exitY=0.5;exitDx=0;exitDy=0;" edge="1" parent="swyq_M6X0E8kCA_kpSzY-1" source="swyq_M6X0E8kCA_kpSzY-15" target="swyq_M6X0E8kCA_kpSzY-11">
                    <mxGeometry relative="1" as="geometry"/>
                </mxCell>
                <mxCell id="swyq_M6X0E8kCA_kpSzY-15" value="该记录对应的数据&lt;br&gt;标识设为False" style="whiteSpace=wrap;html=1;" vertex="1" parent="swyq_M6X0E8kCA_kpSzY-1">
                    <mxGeometry x="300" y="389" width="120" height="60" as="geometry"/>
                </mxCell>
                <mxCell id="swyq_M6X0E8kCA_kpSzY-16" style="edgeStyle=none;html=1;exitX=0;exitY=0.5;exitDx=0;exitDy=0;entryX=0;entryY=0.5;entryDx=0;entryDy=0;" edge="1" parent="swyq_M6X0E8kCA_kpSzY-1" source="swyq_M6X0E8kCA_kpSzY-19" target="swyq_M6X0E8kCA_kpSzY-11">
                    <mxGeometry relative="1" as="geometry">
                        <Array as="points">
                            <mxPoint x="40" y="528"/>
                            <mxPoint x="40" y="419"/>
                        </Array>
                    </mxGeometry>
                </mxCell>
                <mxCell id="swyq_M6X0E8kCA_kpSzY-17" value="否" style="edgeLabel;html=1;align=center;verticalAlign=middle;resizable=0;points=[];" vertex="1" connectable="0" parent="swyq_M6X0E8kCA_kpSzY-16">
                    <mxGeometry x="-0.6516" relative="1" as="geometry">
                        <mxPoint as="offset"/>
                    </mxGeometry>
                </mxCell>
                <mxCell id="swyq_M6X0E8kCA_kpSzY-18" value="是" style="edgeStyle=none;html=1;exitX=0.5;exitY=1;exitDx=0;exitDy=0;entryX=1;entryY=0.5;entryDx=0;entryDy=0;" edge="1" parent="swyq_M6X0E8kCA_kpSzY-1" source="swyq_M6X0E8kCA_kpSzY-19" target="swyq_M6X0E8kCA_kpSzY-21">
                    <mxGeometry relative="1" as="geometry">
                        <Array as="points">
                            <mxPoint x="360" y="614"/>
                        </Array>
                    </mxGeometry>
                </mxCell>
                <mxCell id="swyq_M6X0E8kCA_kpSzY-19" value="金额格式正确" style="rhombus;whiteSpace=wrap;html=1;" vertex="1" parent="swyq_M6X0E8kCA_kpSzY-1">
                    <mxGeometry x="320" y="487.5" width="80" height="80" as="geometry"/>
                </mxCell>
                <mxCell id="swyq_M6X0E8kCA_kpSzY-20" value="" style="edgeStyle=none;html=1;" edge="1" parent="swyq_M6X0E8kCA_kpSzY-1" source="swyq_M6X0E8kCA_kpSzY-21" target="swyq_M6X0E8kCA_kpSzY-23">
                    <mxGeometry relative="1" as="geometry"/>
                </mxCell>
                <mxCell id="swyq_M6X0E8kCA_kpSzY-21" value="输入创建日期" style="whiteSpace=wrap;html=1;" vertex="1" parent="swyq_M6X0E8kCA_kpSzY-1">
                    <mxGeometry x="100" y="584" width="120" height="60" as="geometry"/>
                </mxCell>
                <mxCell id="swyq_M6X0E8kCA_kpSzY-22" value="" style="edgeStyle=none;html=1;" edge="1" parent="swyq_M6X0E8kCA_kpSzY-1" source="swyq_M6X0E8kCA_kpSzY-23" target="swyq_M6X0E8kCA_kpSzY-25">
                    <mxGeometry relative="1" as="geometry"/>
                </mxCell>
                <mxCell id="swyq_M6X0E8kCA_kpSzY-23" value="输入记录详细类型" style="whiteSpace=wrap;html=1;" vertex="1" parent="swyq_M6X0E8kCA_kpSzY-1">
                    <mxGeometry x="100" y="685" width="120" height="60" as="geometry"/>
                </mxCell>
                <mxCell id="swyq_M6X0E8kCA_kpSzY-24" value="" style="edgeStyle=none;html=1;" edge="1" parent="swyq_M6X0E8kCA_kpSzY-1" source="swyq_M6X0E8kCA_kpSzY-25" target="swyq_M6X0E8kCA_kpSzY-29">
                    <mxGeometry relative="1" as="geometry"/>
                </mxCell>
                <mxCell id="swyq_M6X0E8kCA_kpSzY-25" value="校验数据格式" style="whiteSpace=wrap;html=1;" vertex="1" parent="swyq_M6X0E8kCA_kpSzY-1">
                    <mxGeometry x="300" y="685" width="120" height="60" as="geometry"/>
                </mxCell>
                <mxCell id="swyq_M6X0E8kCA_kpSzY-26" style="edgeStyle=none;html=1;exitX=0;exitY=0.5;exitDx=0;exitDy=0;entryX=0;entryY=0.5;entryDx=0;entryDy=0;" edge="1" parent="swyq_M6X0E8kCA_kpSzY-1" source="swyq_M6X0E8kCA_kpSzY-29" target="swyq_M6X0E8kCA_kpSzY-11">
                    <mxGeometry relative="1" as="geometry">
                        <Array as="points">
                            <mxPoint x="40" y="814"/>
                            <mxPoint x="40" y="419"/>
                        </Array>
                    </mxGeometry>
                </mxCell>
                <mxCell id="swyq_M6X0E8kCA_kpSzY-27" value="否" style="edgeLabel;html=1;align=center;verticalAlign=middle;resizable=0;points=[];" vertex="1" connectable="0" parent="swyq_M6X0E8kCA_kpSzY-26">
                    <mxGeometry x="-0.6026" relative="1" as="geometry">
                        <mxPoint as="offset"/>
                    </mxGeometry>
                </mxCell>
                <mxCell id="swyq_M6X0E8kCA_kpSzY-28" value="" style="edgeStyle=none;html=1;" edge="1" parent="swyq_M6X0E8kCA_kpSzY-1" source="swyq_M6X0E8kCA_kpSzY-29" target="swyq_M6X0E8kCA_kpSzY-31">
                    <mxGeometry relative="1" as="geometry"/>
                </mxCell>
                <mxCell id="swyq_M6X0E8kCA_kpSzY-29" value="校验通过" style="rhombus;whiteSpace=wrap;html=1;" vertex="1" parent="swyq_M6X0E8kCA_kpSzY-1">
                    <mxGeometry x="320" y="774" width="80" height="80" as="geometry"/>
                </mxCell>
                <mxCell id="swyq_M6X0E8kCA_kpSzY-30" value="" style="edgeStyle=none;html=1;" edge="1" parent="swyq_M6X0E8kCA_kpSzY-1" source="swyq_M6X0E8kCA_kpSzY-31" target="swyq_M6X0E8kCA_kpSzY-33">
                    <mxGeometry relative="1" as="geometry">
                        <Array as="points">
                            <mxPoint x="560" y="910"/>
                        </Array>
                    </mxGeometry>
                </mxCell>
                <mxCell id="swyq_M6X0E8kCA_kpSzY-31" value="存储到本地数据库" style="whiteSpace=wrap;html=1;" vertex="1" parent="swyq_M6X0E8kCA_kpSzY-1">
                    <mxGeometry x="500" y="784" width="120" height="60" as="geometry"/>
                </mxCell>
                <mxCell id="swyq_M6X0E8kCA_kpSzY-32" style="edgeStyle=none;html=1;exitX=0.5;exitY=1;exitDx=0;exitDy=0;" edge="1" parent="swyq_M6X0E8kCA_kpSzY-1" source="swyq_M6X0E8kCA_kpSzY-33" target="swyq_M6X0E8kCA_kpSzY-34">
                    <mxGeometry relative="1" as="geometry"/>
                </mxCell>
                <mxCell id="swyq_M6X0E8kCA_kpSzY-33" value="记录更改到本地缓存" style="whiteSpace=wrap;html=1;" vertex="1" parent="swyq_M6X0E8kCA_kpSzY-1">
                    <mxGeometry x="300" y="880" width="120" height="60" as="geometry"/>
                </mxCell>
                <mxCell id="swyq_M6X0E8kCA_kpSzY-34" value="结束" style="rounded=1;whiteSpace=wrap;html=1;" vertex="1" parent="swyq_M6X0E8kCA_kpSzY-1">
                    <mxGeometry x="300" y="970" width="120" height="60" as="geometry"/>
                </mxCell>
            </root>
        </mxGraphModel>
    </diagram>
</mxfile>